<?xml version="1.0" encoding="UTF-8"?>
<svg xmlns="http://www.w3.org/2000/svg" xmlns:xlink="http://www.w3.org/1999/xlink" height="16px" viewBox="0 0 16 16" width="16px"><filter id="a" height="100%" width="100%" x="0%" y="0%"><feColorMatrix color-interpolation-filters="sRGB" values="0 0 0 0 1 0 0 0 0 1 0 0 0 0 1 0 0 0 1 0"/></filter><mask id="b"><g filter="url(#a)"><path d="m -1.6 -1.6 h 19.2 v 19.2 h -19.2 z" fill-opacity="0.5"/></g></mask><clipPath id="c"><path d="m 0 0 h 1600 v 1200 h -1600 z"/></clipPath><mask id="d"><g filter="url(#a)"><path d="m -1.6 -1.6 h 19.2 v 19.2 h -19.2 z" fill-opacity="0.7"/></g></mask><clipPath id="e"><path d="m 0 0 h 1600 v 1200 h -1600 z"/></clipPath><mask id="f"><g filter="url(#a)"><path d="m -1.6 -1.6 h 19.2 v 19.2 h -19.2 z" fill-opacity="0.35"/></g></mask><clipPath id="g"><path d="m 0 0 h 1600 v 1200 h -1600 z"/></clipPath><path d="m 1.972656 3.773438 c -0.132812 0.007812 -0.257812 0.070312 -0.34375 0.167968 c -1.066406 1.210938 -1.628906 2.585938 -1.628906 3.984375 c 0 1.402344 0.558594 2.8125 1.617188 4.105469 c 0.175781 0.214844 0.488281 0.246094 0.703124 0.070312 c 0.214844 -0.175781 0.246094 -0.488281 0.070313 -0.703124 c -0.945313 -1.152344 -1.390625 -2.332032 -1.390625 -3.472657 c 0 -1.136719 0.441406 -2.261719 1.378906 -3.324219 c 0.183594 -0.207031 0.164063 -0.523437 -0.042968 -0.707031 c -0.101563 -0.085937 -0.230469 -0.128906 -0.363282 -0.121093 z m 11.984375 0 c -0.105469 0.011718 -0.207031 0.054687 -0.285156 0.121093 c -0.207031 0.183594 -0.226563 0.5 -0.042969 0.710938 c 0.933594 1.058593 1.375 2.183593 1.375 3.320312 c 0 1.140625 -0.445312 2.320313 -1.386718 3.472657 c -0.175782 0.214843 -0.144532 0.527343 0.070312 0.703124 c 0.210938 0.175782 0.527344 0.144532 0.703125 -0.070312 c 1.058594 -1.292969 1.613281 -2.703125 1.613281 -4.101562 c 0 -1.402344 -0.558594 -2.777344 -1.625 -3.988282 c -0.109375 -0.121094 -0.265625 -0.183594 -0.421875 -0.167968 z m -8.101562 0.164062 c -0.480469 0.023438 -0.855469 0.417969 -0.855469 0.898438 v 6.359374 c 0 0.675782 0.742188 1.085938 1.3125 0.730469 l 5.265625 -3.246093 c 0.507813 -0.3125 0.507813 -1.046876 0.003906 -1.363282 l -5.203125 -3.246094 c -0.15625 -0.097656 -0.339844 -0.144531 -0.523437 -0.132812 z m -2.359375 1.050781 c -0.160156 -0.003906 -0.3125 0.066407 -0.410156 0.195313 c -0.679688 0.886718 -1.070313 1.824218 -1.078126 2.792968 c -0.011718 0.964844 0.363282 1.921876 1.085938 2.835938 c 0.167969 0.214844 0.484375 0.25 0.699219 0.078125 c 0.214843 -0.167969 0.253906 -0.484375 0.082031 -0.699219 c -0.617188 -0.777344 -0.875 -1.5 -0.871094 -2.207031 c 0.007813 -0.703125 0.289063 -1.425781 0.875 -2.191406 c 0.167969 -0.21875 0.128906 -0.53125 -0.09375 -0.703125 c -0.082031 -0.0625 -0.183594 -0.097656 -0.289062 -0.101563 z m 9.015625 0 c -0.109375 0.003907 -0.210938 0.039063 -0.292969 0.105469 c -0.21875 0.164062 -0.261719 0.480469 -0.09375 0.699219 c 0.585938 0.765625 0.867188 1.488281 0.875 2.195312 c 0.007812 0.703125 -0.253906 1.425781 -0.867188 2.203125 c -0.171874 0.214844 -0.136718 0.53125 0.082032 0.703125 c 0.214844 0.167969 0.527344 0.132813 0.699218 -0.082031 c 0.722657 -0.914062 1.097657 -1.871094 1.085938 -2.835938 c -0.011719 -0.96875 -0.398438 -1.90625 -1.078125 -2.792968 c -0.097656 -0.128906 -0.253906 -0.199219 -0.410156 -0.195313 z m 0 0" fill="#222222"/><g mask="url(#b)"><g clip-path="url(#c)" transform="matrix(1 0 0 1 -600 -1044)"><path d="m 550 182 c -0.351562 0.003906 -0.695312 0.101562 -1 0.28125 v 3.4375 c 0.304688 0.179688 0.648438 0.277344 1 0.28125 c 1.105469 0 2 -0.894531 2 -2 s -0.894531 -2 -2 -2 z m 0 5 c -0.339844 0 -0.679688 0.058594 -1 0.175781 v 6.824219 h 4 v -4 c 0 -1.65625 -1.34375 -3 -3 -3 z m 0 0"/></g></g><g mask="url(#d)"><g clip-path="url(#e)" transform="matrix(1 0 0 1 -600 -1044)"><path d="m 569 182 v 4 c 1.105469 0 2 -0.894531 2 -2 s -0.894531 -2 -2 -2 z m 0 5 v 7 h 3 v -4 c 0 -1.65625 -1.34375 -3 -3 -3 z m 0 0"/></g></g><g mask="url(#f)"><g clip-path="url(#g)" transform="matrix(1 0 0 1 -600 -1044)"><path d="m 573 182.269531 v 3.449219 c 0.613281 -0.355469 0.996094 -1.007812 1 -1.71875 c 0 -0.714844 -0.382812 -1.375 -1 -1.730469 z m 0 4.90625 v 6.824219 h 2 v -4 c 0 -1.269531 -0.800781 -2.402344 -2 -2.824219 z m 0 0"/></g></g></svg>
