<?xml version="1.0" encoding="UTF-8"?>
<svg height="16px" viewBox="0 0 16 16" width="16px" xmlns="http://www.w3.org/2000/svg">
    <g fill="#2e3436">
        <path
            d="M2 2 C0.895 2 0 2.895 0 4 L0 12 C0 13.105 0.895 14 2 14 L14 14 C15.105 14 16 13.105 16 12 L16 4 C16 2.895 15.105 2 14 2 L2 2 z M2 4 L14 4 L14 12 L2 12 L2 4 z M8 5 C6.343 5 5 6.343 5 8 C5 9.657 6.343 11 8 11 C9.657 11 11 9.657 11 8 C11 6.343 9.657 5 8 5 z M8 7 C8.552 7 9 7.448 9 8 C9 8.552 8.552 9 8 9 C7.448 9 7 8.552 7 8 C7 7.448 7.448 7 8 7 z" />
    </g>
</svg>