<?xml version="1.0" encoding="UTF-8"?>
<svg height="16px" viewBox="0 0 16 16" width="16px" xmlns="http://www.w3.org/2000/svg">
    <g fill="#2e3436">
        <path d="m 3 0 c -1.660156 0 -3 1.339844 -3 3 v 7 c 0 1.660156 1.339844 3 3 3 h 10 c 1.660156 0 3 -1.339844 3 -3 v -1 c 0 -0.550781 -0.449219 -1 -1 -1 s -1 0.449219 -1 1 v 1 c 0 0.554688 -0.445312 1 -1 1 h -10 c -0.554688 0 -1 -0.445312 -1 -1 v -7 c 0 -0.554688 0.445312 -1 1 -1 h 4 c 0.550781 0 1 -0.449219 1 -1 s -0.449219 -1 -1 -1 z m 7 0 c -0.550781 0 -1 0.449219 -1 1 s 0.449219 1 1 1 h 2.585938 l -5.292969 5.289062 c -0.1875 0.191407 -0.292969 0.445313 -0.292969 0.710938 s 0.105469 0.519531 0.292969 0.707031 c 0.390625 0.390625 1.023437 0.390625 1.414062 0 l 5.292969 -5.292969 v 2.585938 c 0 0.550781 0.449219 1 1 1 s 1 -0.449219 1 -1 v -5 c 0 -0.085938 -0.011719 -0.171875 -0.035156 -0.257812 c -0.023438 -0.085938 -0.054688 -0.167969 -0.101563 -0.242188 c -0.042969 -0.074219 -0.09375 -0.144531 -0.15625 -0.207031 c 0 0 0 0 0 -0.003907 c -0.015625 -0.011718 -0.03125 -0.023437 -0.046875 -0.035156 c -0.054687 -0.046875 -0.117187 -0.089844 -0.183594 -0.128906 c -0.035156 -0.015625 -0.074218 -0.03125 -0.113281 -0.046875 c -0.050781 -0.0195312 -0.101562 -0.0351562 -0.15625 -0.0507812 c -0.039062 -0.0078126 -0.082031 -0.0117188 -0.121093 -0.015625 c -0.027344 -0.0039063 -0.058594 -0.00781255 -0.085938 -0.0117188 z m -5 14 c -1.105469 0 -2 0.894531 -2 2 h 10 c 0 -1.105469 -0.894531 -2 -2 -2 z m 0 0"/>
        <path d="m 3 3 v 7 h 10 v -4.171875 l -3.585938 3.585937 c -0.773437 0.773438 -2.054687 0.773438 -2.828124 0 c -0.773438 -0.773437 -0.773438 -2.058593 0 -2.832031 l 3.585937 -3.582031 z m 0 0" fill-opacity="0.34902"/>
    </g>
</svg>
